<svg width="24" height="25" viewBox="0 0 24 25" fill="none" xmlns="http://www.w3.org/2000/svg">
<path d="M17.3 3.2049C20.15 3.2049 22.5 5.80489 22.5 8.9549C22.5 12.3549 19.55 14.4549 16.75 16.9549C13.95 19.4549 12.5 20.8049 12 21.1049C11.45 20.7549 9.65 19.1049 7.25 16.9549C4.4 14.4549 1.5 12.3549 1.5 8.9549C1.5 5.80489 3.85 3.2049 6.7 3.2049C8.8 3.2049 9.95 4.2049 10.75 5.35489C11.7 6.65489 11.85 7.3049 12 7.3049C12.15 7.3049 12.3 6.65489 13.25 5.35489C14.05 4.2049 15.2 3.2049 17.3 3.2049ZM17.3 1.7049C15.05 1.7049 13.35 2.60489 12 4.50489C10.65 2.65489 8.95 1.7549 6.7 1.7549C3 1.7049 0 4.9549 0 8.9549C0 12.6049 2.7 14.9549 5.3 17.2049C5.6 17.4549 5.95 17.7549 6.25 18.0549L7.4 19.0549C9.6 21.0049 10.7 22.0049 11.2 22.3049C11.45 22.4549 11.75 22.5549 12 22.5549C12.3 22.5549 12.55 22.4549 12.8 22.3049C13.3 22.0049 14.2 21.2049 16.7 18.9049L17.7 18.0049C18.05 17.7049 18.35 17.4049 18.7 17.1549C21.35 14.9549 24 12.6549 24 8.9549C24 4.9549 21 1.7049 17.3 1.7049Z" fill="#262626"/>
</svg>
