<svg width="22" height="25" viewBox="0 0 22 25" fill="none" xmlns="http://www.w3.org/2000/svg">
<path d="M20.75 24.1549C20.55 24.1549 20.35 24.0549 20.2 23.9549L11 14.6549L1.8 23.9549C1.6 24.1549 1.25 24.2549 1 24.1049C0.7 24.0049 0.5 23.7049 0.5 23.4049V0.904907C0.5 0.504907 0.85 0.154907 1.25 0.154907H20.75C21.15 0.154907 21.5 0.504907 21.5 0.904907V23.4049C21.5 23.7049 21.3 24.0049 21.05 24.1049C20.95 24.1549 20.85 24.1549 20.75 24.1549ZM11 13.1549C11.4 13.1549 11.8 13.3049 12.1 13.6049L20 21.6049V1.65491H2V21.6049L9.9 13.6049C10.2 13.3049 10.6 13.1549 11 13.1549Z" fill="#262626"/>
</svg>
